# xmcd
#
# Track frame offsets: 
#        150
#        17002
#        36384
#        59678
#        84232
#        102419
#        123451
#        139256
#        154623
#        176193
#        199581
#        228709
#        244908
#
# Disc length: 3571 seconds
#
# Revision: 0
# Processed by: cddbd v1.5.2PL0 Copyright (c) Steve Scherf et al.
# Submitted via: ExactAudioCopy v1.2
#
DISCID=b70df10d
DTITLE=Billy Hector - Some Day Baby
DYEAR=2018
DGENRE=Blues
TTITLE0=Wizard of Babylon
TTITLE1=Someday Baby
TTITLE2=Butt Naked and Funk
TTITLE3=Hit the Road
TTITLE4=Busy Man
TTITLE5=Moonlight in Her Eyes
TTITLE6=Bareback
TTITLE7=Jolene
TTITLE8=Alabama Bound
TTITLE9=On Your Bond
TTITLE10=Whiskey
TTITLE11=Creeper
TTITLE12=Road to Happiness
EXTD=
EXTT0=
EXTT1=
EXTT2=
EXTT3=
EXTT4=
EXTT5=
EXTT6=
EXTT7=
EXTT8=
EXTT9=
EXTT10=
EXTT11=
EXTT12=
PLAYORDER=
